<svg width="38" height="62" viewBox="0 0 38 62" fill="none" xmlns="http://www.w3.org/2000/svg">
<path fill-rule="evenodd" clip-rule="evenodd" d="M36.4546 0.425842C36.813 0.710392 37.0219 1.14298 37.0219 1.6006V56.0006C37.0219 56.6977 36.5416 57.303 35.8627 57.4614L16.7377 61.9239C16.2919 62.0279 15.823 61.9227 15.4645 61.6381C15.1059 61.3536 14.8969 60.9209 14.8969 60.4631V6.05248C14.8969 5.35506 15.3775 4.74965 16.0568 4.59153L35.1818 0.139658C35.6275 0.0359084 36.0962 0.141291 36.4546 0.425842ZM17.8969 7.24341V58.5728L34.0219 54.8103V3.48987L17.8969 7.24341Z" fill="white"/>
<path fill-rule="evenodd" clip-rule="evenodd" d="M0.978149 1.54761C0.978149 0.71918 1.64972 0.0476074 2.47815 0.0476074H35.5219C36.3503 0.0476074 37.0219 0.71918 37.0219 1.54761V1.60073C37.0219 2.42916 36.3503 3.10073 35.5219 3.10073C35.3844 3.10073 35.2513 3.08224 35.1248 3.04761H3.97815V54.4476H16.3969C17.2253 54.4476 17.8969 55.1192 17.8969 55.9476C17.8969 56.776 17.2253 57.4476 16.3969 57.4476H2.47815C1.64972 57.4476 0.978149 56.776 0.978149 55.9476V1.54761Z" fill="white"/>
<path fill-rule="evenodd" clip-rule="evenodd" d="M23.0375 25.3137C23.8659 25.3137 24.5375 25.9853 24.5375 26.8137V32.6362C24.5375 33.4646 23.8659 34.1362 23.0375 34.1362C22.209 34.1362 21.5375 33.4646 21.5375 32.6362V26.8137C21.5375 25.9853 22.209 25.3137 23.0375 25.3137Z" fill="white"/>
</svg>
